<mxfile host="app.diagrams.net" modified="2021-12-20T01:45:01.027Z" agent="5.0 (X11; Linux x86_64) AppleWebKit/537.36 (KHTML, like Gecko) Chrome/96.0.4664.93 Safari/537.36" etag="YaDuiCpMJhOruVD_48sB" version="15.9.6" type="github">
  <diagram id="oNoCh472WHkI5cA-Zi-L" name="Page-1">
    <mxGraphModel dx="1421" dy="798" grid="1" gridSize="10" guides="1" tooltips="1" connect="1" arrows="1" fold="1" page="1" pageScale="1" pageWidth="827" pageHeight="1169" math="0" shadow="0">
      <root>
        <mxCell id="0" />
        <mxCell id="1" parent="0" />
        <mxCell id="GLa5csYSYCW1cpfw3nZ--2" value="前后端模板混写" style="rounded=0;whiteSpace=wrap;html=1;" parent="1" vertex="1">
          <mxGeometry x="320" y="60" width="120" height="60" as="geometry" />
        </mxCell>
        <mxCell id="GLa5csYSYCW1cpfw3nZ--3" value="服务端响应请求&lt;br&gt;既解析模板，又处理数据与业务逻辑" style="rounded=0;whiteSpace=wrap;html=1;" parent="1" vertex="1">
          <mxGeometry x="600" y="60" width="120" height="60" as="geometry" />
        </mxCell>
        <mxCell id="WB2fAAEro395lvzVg5sQ-3" value="" style="shape=flexArrow;endArrow=classic;html=1;entryX=0;entryY=0.5;entryDx=0;entryDy=0;exitX=1;exitY=0.5;exitDx=0;exitDy=0;" parent="1" source="GLa5csYSYCW1cpfw3nZ--2" target="GLa5csYSYCW1cpfw3nZ--3" edge="1">
          <mxGeometry width="50" height="50" relative="1" as="geometry">
            <mxPoint x="490" y="130" as="sourcePoint" />
            <mxPoint x="550" y="100" as="targetPoint" />
          </mxGeometry>
        </mxCell>
        <mxCell id="WB2fAAEro395lvzVg5sQ-4" value="&lt;h2&gt;&lt;font style=&quot;font-size: 23px&quot;&gt;进化&lt;/font&gt;&lt;/h2&gt;" style="shape=flexArrow;endArrow=classic;html=1;" parent="1" edge="1">
          <mxGeometry width="50" height="50" relative="1" as="geometry">
            <mxPoint x="530" y="150" as="sourcePoint" />
            <mxPoint x="530" y="270" as="targetPoint" />
          </mxGeometry>
        </mxCell>
        <mxCell id="WB2fAAEro395lvzVg5sQ-5" value="后端发布" style="text;html=1;align=center;verticalAlign=middle;resizable=0;points=[];autosize=1;" parent="1" vertex="1">
          <mxGeometry x="480" y="60" width="60" height="20" as="geometry" />
        </mxCell>
        <mxCell id="WB2fAAEro395lvzVg5sQ-22" style="edgeStyle=orthogonalEdgeStyle;rounded=0;orthogonalLoop=1;jettySize=auto;html=1;" parent="1" source="WB2fAAEro395lvzVg5sQ-8" target="WB2fAAEro395lvzVg5sQ-16" edge="1">
          <mxGeometry relative="1" as="geometry" />
        </mxCell>
        <mxCell id="WB2fAAEro395lvzVg5sQ-8" value="前端" style="rounded=0;whiteSpace=wrap;html=1;" parent="1" vertex="1">
          <mxGeometry x="320" y="310" width="120" height="60" as="geometry" />
        </mxCell>
        <mxCell id="WB2fAAEro395lvzVg5sQ-9" value="&lt;b&gt;所有请求&lt;br&gt;&lt;/b&gt;仍然全部由服务端接收" style="rounded=0;whiteSpace=wrap;html=1;" parent="1" vertex="1">
          <mxGeometry x="870" y="310" width="170" height="60" as="geometry" />
        </mxCell>
        <mxCell id="WB2fAAEro395lvzVg5sQ-11" value="发送结果文件" style="text;html=1;align=center;verticalAlign=middle;resizable=0;points=[];autosize=1;" parent="1" vertex="1">
          <mxGeometry x="465" y="310" width="90" height="20" as="geometry" />
        </mxCell>
        <mxCell id="WB2fAAEro395lvzVg5sQ-13" value="&lt;h1&gt;第一代web部署&lt;/h1&gt;&lt;div&gt;服务端掌管一切&lt;/div&gt;" style="text;html=1;strokeColor=none;fillColor=none;spacing=5;spacingTop=-20;whiteSpace=wrap;overflow=hidden;rounded=0;" parent="1" vertex="1">
          <mxGeometry x="50" y="55" width="190" height="70" as="geometry" />
        </mxCell>
        <mxCell id="WB2fAAEro395lvzVg5sQ-14" value="&lt;h1&gt;第二代web部署&lt;/h1&gt;&lt;div&gt;各写各的，但最后部署到&lt;span&gt;一个环境&lt;/span&gt;&lt;/div&gt;" style="text;html=1;strokeColor=none;fillColor=none;spacing=5;spacingTop=-20;whiteSpace=wrap;overflow=hidden;rounded=0;" parent="1" vertex="1">
          <mxGeometry x="50" y="300" width="190" height="90" as="geometry" />
        </mxCell>
        <mxCell id="WB2fAAEro395lvzVg5sQ-21" style="edgeStyle=orthogonalEdgeStyle;rounded=0;orthogonalLoop=1;jettySize=auto;html=1;" parent="1" source="WB2fAAEro395lvzVg5sQ-16" target="WB2fAAEro395lvzVg5sQ-9" edge="1">
          <mxGeometry relative="1" as="geometry" />
        </mxCell>
        <mxCell id="WB2fAAEro395lvzVg5sQ-16" value="&lt;span&gt;后端的一个指定文件夹内&lt;/span&gt;" style="rounded=0;whiteSpace=wrap;html=1;" parent="1" vertex="1">
          <mxGeometry x="590" y="310" width="110" height="60" as="geometry" />
        </mxCell>
        <mxCell id="WB2fAAEro395lvzVg5sQ-23" value="后端发布" style="text;html=1;align=center;verticalAlign=middle;resizable=0;points=[];autosize=1;" parent="1" vertex="1">
          <mxGeometry x="752" y="310" width="60" height="20" as="geometry" />
        </mxCell>
        <mxCell id="JhKGkFPH5AHFXaF74hSK-1" style="edgeStyle=orthogonalEdgeStyle;rounded=0;orthogonalLoop=1;jettySize=auto;html=1;" edge="1" parent="1" source="JhKGkFPH5AHFXaF74hSK-2" target="JhKGkFPH5AHFXaF74hSK-7">
          <mxGeometry relative="1" as="geometry" />
        </mxCell>
        <mxCell id="JhKGkFPH5AHFXaF74hSK-2" value="前端" style="rounded=0;whiteSpace=wrap;html=1;" vertex="1" parent="1">
          <mxGeometry x="320" y="570" width="120" height="60" as="geometry" />
        </mxCell>
        <mxCell id="JhKGkFPH5AHFXaF74hSK-3" value="服务端&lt;br&gt;处理逻辑并返回纯数据" style="rounded=0;whiteSpace=wrap;html=1;" vertex="1" parent="1">
          <mxGeometry x="690" y="740" width="160" height="60" as="geometry" />
        </mxCell>
        <mxCell id="JhKGkFPH5AHFXaF74hSK-4" value="发布" style="text;html=1;align=center;verticalAlign=middle;resizable=0;points=[];autosize=1;" vertex="1" parent="1">
          <mxGeometry x="540" y="570" width="40" height="20" as="geometry" />
        </mxCell>
        <mxCell id="JhKGkFPH5AHFXaF74hSK-5" value="&lt;h1&gt;第三代web部署&lt;/h1&gt;&lt;div&gt;各干各活，各住各屋&lt;/div&gt;" style="text;html=1;strokeColor=none;fillColor=none;spacing=5;spacingTop=-20;whiteSpace=wrap;overflow=hidden;rounded=0;" vertex="1" parent="1">
          <mxGeometry x="50" y="560" width="190" height="90" as="geometry" />
        </mxCell>
        <mxCell id="JhKGkFPH5AHFXaF74hSK-9" style="edgeStyle=orthogonalEdgeStyle;rounded=0;orthogonalLoop=1;jettySize=auto;html=1;exitX=0.5;exitY=1;exitDx=0;exitDy=0;" edge="1" parent="1" source="JhKGkFPH5AHFXaF74hSK-7" target="JhKGkFPH5AHFXaF74hSK-3">
          <mxGeometry relative="1" as="geometry" />
        </mxCell>
        <mxCell id="JhKGkFPH5AHFXaF74hSK-7" value="&lt;span&gt;nginx 静态文件服务&lt;/span&gt;" style="rounded=0;whiteSpace=wrap;html=1;" vertex="1" parent="1">
          <mxGeometry x="700" y="570" width="140" height="60" as="geometry" />
        </mxCell>
        <mxCell id="JhKGkFPH5AHFXaF74hSK-10" value="api请求转发" style="text;html=1;align=center;verticalAlign=middle;resizable=0;points=[];autosize=1;strokeColor=none;fillColor=none;" vertex="1" parent="1">
          <mxGeometry x="770" y="680" width="80" height="20" as="geometry" />
        </mxCell>
        <mxCell id="JhKGkFPH5AHFXaF74hSK-14" style="edgeStyle=orthogonalEdgeStyle;rounded=0;orthogonalLoop=1;jettySize=auto;html=1;entryX=0;entryY=0.5;entryDx=0;entryDy=0;" edge="1" parent="1" source="JhKGkFPH5AHFXaF74hSK-12" target="JhKGkFPH5AHFXaF74hSK-3">
          <mxGeometry relative="1" as="geometry" />
        </mxCell>
        <mxCell id="JhKGkFPH5AHFXaF74hSK-12" value="后端" style="rounded=0;whiteSpace=wrap;html=1;" vertex="1" parent="1">
          <mxGeometry x="320" y="740" width="120" height="60" as="geometry" />
        </mxCell>
        <mxCell id="JhKGkFPH5AHFXaF74hSK-15" value="发布" style="text;html=1;align=center;verticalAlign=middle;resizable=0;points=[];autosize=1;" vertex="1" parent="1">
          <mxGeometry x="540" y="740" width="40" height="20" as="geometry" />
        </mxCell>
        <mxCell id="JhKGkFPH5AHFXaF74hSK-16" style="edgeStyle=orthogonalEdgeStyle;rounded=0;orthogonalLoop=1;jettySize=auto;html=1;" edge="1" parent="1" source="JhKGkFPH5AHFXaF74hSK-17" target="JhKGkFPH5AHFXaF74hSK-22">
          <mxGeometry relative="1" as="geometry" />
        </mxCell>
        <mxCell id="JhKGkFPH5AHFXaF74hSK-17" value="前端" style="rounded=0;whiteSpace=wrap;html=1;" vertex="1" parent="1">
          <mxGeometry x="310" y="980" width="120" height="60" as="geometry" />
        </mxCell>
        <mxCell id="JhKGkFPH5AHFXaF74hSK-18" value="服务端&lt;br&gt;处理逻辑并返回纯数据" style="rounded=0;whiteSpace=wrap;html=1;" vertex="1" parent="1">
          <mxGeometry x="680" y="1150" width="160" height="60" as="geometry" />
        </mxCell>
        <mxCell id="JhKGkFPH5AHFXaF74hSK-19" value="发布" style="text;html=1;align=center;verticalAlign=middle;resizable=0;points=[];autosize=1;" vertex="1" parent="1">
          <mxGeometry x="530" y="980" width="40" height="20" as="geometry" />
        </mxCell>
        <mxCell id="JhKGkFPH5AHFXaF74hSK-20" value="&lt;h1&gt;第三代web部署简化&lt;/h1&gt;&lt;div&gt;各干各活，各住各屋&lt;/div&gt;" style="text;html=1;strokeColor=none;fillColor=none;spacing=5;spacingTop=-20;whiteSpace=wrap;overflow=hidden;rounded=0;" vertex="1" parent="1">
          <mxGeometry x="40" y="970" width="250" height="90" as="geometry" />
        </mxCell>
        <mxCell id="JhKGkFPH5AHFXaF74hSK-21" style="edgeStyle=orthogonalEdgeStyle;rounded=0;orthogonalLoop=1;jettySize=auto;html=1;exitX=0.5;exitY=1;exitDx=0;exitDy=0;" edge="1" parent="1" source="JhKGkFPH5AHFXaF74hSK-22" target="JhKGkFPH5AHFXaF74hSK-18">
          <mxGeometry relative="1" as="geometry" />
        </mxCell>
        <mxCell id="JhKGkFPH5AHFXaF74hSK-22" value="&lt;span&gt;nginx 静态文件服务&lt;/span&gt;" style="rounded=0;whiteSpace=wrap;html=1;" vertex="1" parent="1">
          <mxGeometry x="690" y="980" width="140" height="60" as="geometry" />
        </mxCell>
        <mxCell id="JhKGkFPH5AHFXaF74hSK-23" value="api请求转发" style="text;html=1;align=center;verticalAlign=middle;resizable=0;points=[];autosize=1;strokeColor=none;fillColor=none;" vertex="1" parent="1">
          <mxGeometry x="760" y="1090" width="80" height="20" as="geometry" />
        </mxCell>
        <mxCell id="JhKGkFPH5AHFXaF74hSK-24" style="edgeStyle=orthogonalEdgeStyle;rounded=0;orthogonalLoop=1;jettySize=auto;html=1;entryX=0;entryY=0.5;entryDx=0;entryDy=0;" edge="1" parent="1" source="JhKGkFPH5AHFXaF74hSK-25" target="JhKGkFPH5AHFXaF74hSK-18">
          <mxGeometry relative="1" as="geometry" />
        </mxCell>
        <mxCell id="JhKGkFPH5AHFXaF74hSK-25" value="后端" style="rounded=0;whiteSpace=wrap;html=1;" vertex="1" parent="1">
          <mxGeometry x="310" y="1150" width="120" height="60" as="geometry" />
        </mxCell>
        <mxCell id="JhKGkFPH5AHFXaF74hSK-26" value="发布" style="text;html=1;align=center;verticalAlign=middle;resizable=0;points=[];autosize=1;" vertex="1" parent="1">
          <mxGeometry x="530" y="1150" width="40" height="20" as="geometry" />
        </mxCell>
        <mxCell id="JhKGkFPH5AHFXaF74hSK-27" value="&lt;h1&gt;当前前端发布流程进化典型代表&lt;/h1&gt;&lt;div&gt;其他周边例如公网发布需要依托一些 cdn 服务，图片托管等都是视情况而定的增强。&lt;/div&gt;&lt;div&gt;&lt;br&gt;&lt;/div&gt;&lt;div&gt;但由于需要依赖公司的 docker 发布流程，每次发布时间仍需要十分钟左右，&lt;/div&gt;&lt;div&gt;在开发期间极大拖慢了敏捷性。&lt;/div&gt;&lt;div&gt;&lt;br&gt;&lt;/div&gt;&lt;div&gt;前端发布的核心思维仅仅就是发布静态文件，&lt;br&gt;&lt;/div&gt;从该原则触发去繁化简，流程的简化仍有很大提升空间。" style="text;html=1;strokeColor=none;fillColor=none;spacing=5;spacingTop=-20;whiteSpace=wrap;overflow=hidden;rounded=0;" vertex="1" parent="1">
          <mxGeometry x="990" y="510" width="480" height="265" as="geometry" />
        </mxCell>
      </root>
    </mxGraphModel>
  </diagram>
</mxfile>
